<svg width="550" height="550" viewBox="0 0 550 550" fill="none" xmlns="http://www.w3.org/2000/svg">
<circle cx="275" cy="275" r="275" fill="#EDFBFF"/>
<path d="M139.568 222.036L172.17 222L117.474 276.668L103.219 290.843L87 274.604L139.568 222.036ZM139.265 270.848C139.688 270.289 140.467 270.565 141.057 270.493L172.142 270.501L143.812 298.803L127.509 282.6L139.265 270.848Z" fill="#44D1FD"/>
<path opacity="0.54" d="M217.992 244.837L253.531 244.849L253.527 251.847C244.23 251.847 234.929 251.819 225.628 251.859C224.917 252.095 225.253 252.985 225.173 253.532L225.201 272.353C225.436 273.06 226.331 272.72 226.881 272.808L250.737 272.796V279.786C243.32 279.782 235.907 279.782 228.49 279.786C227.388 279.782 226.275 279.714 225.185 279.902L225.101 306.471C222.71 306.375 220.323 306.463 217.932 306.411L217.928 245.967L217.992 244.837V244.837ZM262.149 244.849H269.446L269.45 286.668L269.37 306.359C266.995 306.316 264.62 306.304 262.249 306.367C262.065 305.393 262.141 304.403 262.141 303.421L262.149 244.849V244.849ZM333.571 250.035L340.892 250.039L340.904 262.413C344.485 262.501 348.085 262.254 351.658 262.537C351.558 264.757 351.642 266.976 351.602 269.196C348.041 269.204 344.485 269.231 340.928 269.18L340.9 293.825C340.976 296.108 341.463 298.867 343.682 300.044C346.217 301.485 349.331 300.807 351.73 299.418V306.587C349.087 307.785 346.073 307.928 343.235 307.541C339.235 306.93 335.403 304.204 334.194 300.24C333.391 298.068 333.575 295.725 333.559 293.458L333.543 269.455L333.363 269.251C330.837 269.116 328.302 269.271 325.771 269.184C325.787 266.924 325.683 264.665 325.827 262.409C328.398 262.366 330.98 262.525 333.547 262.33L333.571 250.035V250.035ZM364.5 250.011C366.935 250.095 369.37 249.983 371.801 250.067L371.968 250.25C372.06 254.314 371.845 258.39 372.064 262.445C375.533 262.381 379.002 262.433 382.467 262.413L382.491 269.144C379.002 269.275 375.501 269.196 372.012 269.176L371.972 294.248C371.968 296.432 372.599 299.014 374.711 300.088C377.301 301.501 380.443 300.775 382.85 299.33L382.842 306.539C380.275 307.697 377.381 307.92 374.611 307.601C371.014 307.122 367.494 305.09 365.805 301.797C364.991 300.072 364.536 298.164 364.46 296.26V269.204C361.933 269.2 359.41 269.212 356.887 269.204L356.903 262.389C359.39 262.457 361.877 262.37 364.364 262.453C364.627 258.318 364.344 254.154 364.5 250.011V250.011ZM400.035 262.645C405.089 260.549 410.921 260.509 416.082 262.266C421.994 264.306 426.569 269.463 428.245 275.447C429.343 278.764 429.299 282.289 429.143 285.738L394.395 285.774C394.682 289.474 395.788 293.246 398.358 296.025C402.011 300.284 408.298 301.865 413.607 300.192C417.332 299.094 420.238 296.228 422.15 292.935C424.265 293.881 426.321 294.959 428.429 295.929C425.547 301.422 420.305 305.785 414.146 306.966C409.088 307.912 403.556 307.936 398.917 305.437C392.898 302.447 388.754 296.36 387.572 289.813C386.714 284.784 386.982 279.463 388.874 274.688C390.858 269.447 394.87 264.908 400.035 262.645V262.645ZM402.785 268.956C398.534 270.92 395.796 275.283 394.941 279.786L421.591 279.702C421.168 276.76 420.122 273.77 417.966 271.643C414.19 267.595 407.735 266.804 402.785 268.956ZM444.963 269.535C447.745 262.777 456.292 259.228 463.05 262.058V269.946C460.212 268.828 457.03 268.138 454.032 269.02C449.937 270.237 446.907 273.89 445.745 277.91C444.947 280.624 445.246 283.458 445.278 286.241C444.967 289.841 445.434 293.446 445.198 297.047C445.39 300.156 445.031 303.266 445.294 306.379C442.811 306.499 440.328 306.371 437.85 306.455C437.706 297.07 437.83 287.682 437.79 278.293L437.846 262.489C440.173 262.553 442.504 262.481 444.835 262.537C445.047 264.868 444.576 267.212 444.963 269.535V269.535ZM279.913 262.401C282.388 262.505 284.883 262.254 287.346 262.533L287.31 288.696C287.286 291.893 287.741 295.386 289.952 297.869C292.806 301.03 297.641 301.609 301.545 300.36C306.762 298.492 310.402 292.967 310.191 287.442L310.271 262.401L317.723 262.417L317.68 306.347C315.316 306.308 312.957 306.347 310.598 306.32L310.57 300.068C309.041 301.988 307.437 303.932 305.245 305.142C300.758 307.972 295.066 308.347 290.04 306.898C286.799 305.92 283.977 303.649 282.352 300.679C280.424 297.414 279.937 293.554 279.825 289.833L279.913 262.401V262.401Z" fill="black"/>
<path d="M111.258 298.831L127.509 282.6L143.811 298.803L143.879 298.875L127.513 315.09L111.258 298.831V298.831Z" fill="#1FBCFD"/>
<path d="M127.514 315.089L143.88 298.875L172.154 327.177C161.504 327.201 150.858 327.169 140.212 327.193C139.605 327.328 139.23 326.773 138.842 326.43L127.514 315.089V315.089Z" fill="#08589C"/>
</svg>
